<svg id="Capa_1" data-name="Capa 1" xmlns="http://www.w3.org/2000/svg" viewBox="0 0 349.79 267.23"><defs><style>.cls-1{fill:#c2000b;}</style></defs><title>corprensa_LOGOS</title><path class="cls-1" d="M159.92,61.39l-44.61,1.3V77.51h7.59c4.15,0,5.75,1.4,5.75,5.14V167c0,3.42-1.6,4.83-4.48,4.83h-7.74v14.81h53.82V171.8H166.5c-5.1,0-6.54-1.25-6.54-6.24Z"/><path class="cls-1" d="M229.93,107.32H177.22v13.41h5.53a2.89,2.89,0,0,1,2.91,2.86,4,4,0,0,1-1.95,3.22L169.5,135.7v17.52l9.28-5.52c.17,0,8,18.8,8,18.8a6.29,6.29,0,0,1,.82,2.75c0,1.67-1.23,2.55-3.53,2.55h-3.26v14.81h55.69V171.8H230.9c-5.43,0-7.19-3.12-10.05-7.79L203.44,132.1s12.46-10.45,21.34-10.45h5.15Z"/><path class="cls-1" d="M118.43,204.64v-1.4c0-2.45,1.95-3.53,3.87-3.53a3.19,3.19,0,0,1,3.48,3.21v1.5h-4.61v.26c0,.83.86,1.13,1.57,1.13a5.63,5.63,0,0,0,2.17-.56l.7,1.64a5.89,5.89,0,0,1-3.29,1C120.35,207.84,118.43,207,118.43,204.64Zm4.83-1.71v-.28a1,1,0,0,0-1-1,1,1,0,0,0-1,1.06v.25Z"/><path class="cls-1" d="M132.27,199.89h2.66v1h0a2.89,2.89,0,0,1,2.43-1.17,2.28,2.28,0,0,1,2.46,2.38v5.56h-2.71v-4.54c0-.62-.2-1.3-1.07-1.3-.59,0-1.08.48-1.08,1.44v4.4h-2.72Z"/><path class="cls-1" d="M155.77,205.6V202h-1V200h1v-2.11h2.71V200h1.62V202h-1.62v2.94c0,.35.15.62.64.62a4.78,4.78,0,0,0,.94-.07v2.07a6.71,6.71,0,0,1-1.87.29C157,207.81,155.77,207.33,155.77,205.6Z"/><path class="cls-1" d="M166.47,205.44v-5.55h2.71v4.54c0,.61.2,1.3,1.07,1.3.6,0,1.08-.48,1.08-1.46v-4.38h2.72v7.76h-2.66v-1.12h0a2.84,2.84,0,0,1-2.43,1.29A2.29,2.29,0,0,1,166.47,205.44Z"/><path class="cls-1" d="M188.9,199.89h2.9l1.35,4.69h.07l1.39-4.69h2.47l-2.65,7.79h-2.78Z"/><path class="cls-1" d="M203.14,197.11h2.73v2h-2.73Zm0,2.78h2.73v7.76h-2.73Z"/><path class="cls-1" d="M212.33,205v-2.56a2.77,2.77,0,0,1,3-2.76,2.63,2.63,0,0,1,1.94.82h0v-3.26H220v10.38h-2.65v-.93h-.06a2.77,2.77,0,0,1-2.15,1.1A2.58,2.58,0,0,1,212.33,205Zm4.95-.47v-1.83a1.07,1.07,0,0,0-1.15-1.11,1.09,1.09,0,0,0-1.07,1.24v1.76a1.08,1.08,0,0,0,1.09,1.17A1.11,1.11,0,0,0,217.28,204.56Z"/><path class="cls-1" d="M226.37,205.58c0-2,2.19-2.56,3.78-2.56h1v-.55c0-.54-.36-.89-1.08-.89s-1,.42-1,.8v.19h-2.4v-.31c0-1.67,1.7-2.53,3.62-2.53s3.6.77,3.6,2.76v3.43a13.17,13.17,0,0,0,.13,1.73h-2.55s0-.15-.08-1h-.08a2.78,2.78,0,0,1-2.4,1.12A2.23,2.23,0,0,1,226.37,205.58Zm4.78-.73v-.46h-.84c-.69,0-1.2.17-1.2.78,0,.43.24.76.93.76A1,1,0,0,0,231.15,204.85Z"/></svg>