<svg id="Capa_1" data-name="Capa 1" xmlns="http://www.w3.org/2000/svg" viewBox="0 0 349.79 267.23"><defs><style>.cls-1{fill:#53bfd8;}.cls-2{fill:#333;}</style></defs><title>corprensa_LOGOS</title><path class="cls-1" d="M298.08,136c0,7.07-1.83,12.93-6.78,12.93s-6.81-5.93-6.81-12.77c0-7.91,2.26-13,6.81-13,5.27,0,6.78,6.63,6.78,12.81m7.49-.12a13.7,13.7,0,0,0-4.41-10.49,14.69,14.69,0,0,0-9.86-3.55,14.52,14.52,0,0,0-9.72,3.55,14.13,14.13,0,0,0-4.59,11,13.49,13.49,0,0,0,4.19,10.16,14.56,14.56,0,0,0,10,3.77,13.66,13.66,0,0,0,14.43-14.41m-45.89-12.14c3.39,0,5.51,1.65,5.51,5.66,0,4.66-2.68,6.13-6.19,6.13h-.64V123.72Zm2.44-1.19H247.48v.9a16.65,16.65,0,0,1,3,.72,1.83,1.83,0,0,1,1.2,2v20a1.77,1.77,0,0,1-1.2,1.93,16.83,16.83,0,0,1-3,.52v.91h14.88v-.91a17.14,17.14,0,0,1-2.8-.63,1.94,1.94,0,0,1-1.2-1.94v-9.34h1.3c3.53,0,4.49,2.41,5,6.72.6,5,2.59,6.57,6.09,6.57,4.71,0,5.71-2.54,5.83-5.81l0-1.23h-1.11v1.18c0,2.19-.68,3.29-1.64,3.29-.75,0-1.52-.6-1.8-1.82-.39-1.86-.55-3.29-1.15-5.45-.8-2.86-3.79-3.84-5.78-4.08v-.28c3.67-.95,7.21-2.81,7.21-7.12s-4-6.17-10.24-6.17m-15.24,18.75h-.95c-.56,1.3-2,4.5-3.67,6.09-1,.95-3.56.95-5.75.95-3.63,0-4.22-.47-4.22-3.37v-8.73h2.39c2.11,0,2.95.48,3.52,1.06a9.53,9.53,0,0,1,1.55,4h1V130h-1a8.24,8.24,0,0,1-1.55,3.79c-.52.51-1.33,1.1-3.52,1.1h-2.39V123.76h3.55a25.23,25.23,0,0,1,3.22.2c2.12.28,4.16,3.83,4.75,5.64h1v-7.07H221.41v.9a20,20,0,0,1,3,.76,1.82,1.82,0,0,1,1.19,2v20a1.77,1.77,0,0,1-1.19,1.93,22.2,22.2,0,0,1-3,.52v.91h25Zm-26.71,8.27v-.91a18.71,18.71,0,0,1-2.84-.63,1.94,1.94,0,0,1-1.19-1.94V125.93a1.79,1.79,0,0,1,1.19-1.94,20.36,20.36,0,0,1,2.84-.56v-.9H205.45v.9a13.37,13.37,0,0,1,2.83.76,1.89,1.89,0,0,1,1.21,2v20.12a1.8,1.8,0,0,1-1.21,1.94,15.45,15.45,0,0,1-2.83.44v.91Zm-15.83-7.09-1.08-.54c-2.12,3.78-4.63,6-8.73,6-4.63,0-7.66-4-7.66-12.25,0-7.57,2.31-12.55,7-12.55,3.52,0,6.43,3.16,8.3,9.19h1.12l-.16-10.13h-1.35l-1,1.46a14.59,14.59,0,0,0-7.06-1.78c-8.21,0-14.2,5.89-14.2,14.48s6.07,13.8,13.64,13.8a11.8,11.8,0,0,0,11.25-7.68m-25-19v-.9H167.73v.9a11.39,11.39,0,0,1,3.7,1.24c.89.76,1.36,2.37,1.36,5.42v10.68l-14.23-18.24h-9.93v1a8,8,0,0,1,3.74,1.82,4.14,4.14,0,0,1,1.24,3.13v13.71c0,3-.36,4.75-1.27,5.43a9.76,9.76,0,0,1-3.6,1v.91h11.49v-.91a11.28,11.28,0,0,1-3.67-1.23c-.87-.75-1.31-2.3-1.31-5.41V128.62l16.43,21h2.71V129.85c0-2.93.4-4.71,1.27-5.38s3-.91,3.64-1m-42.91,15.35H129l3.63-9.56Zm13.79,10.77v-.91a6.67,6.67,0,0,1-2.44-.76,3.33,3.33,0,0,1-1.58-1.85c-.72-1.71-7.34-19.27-9.21-23.94h-3c-1.36,3.46-7.65,19.71-8.89,22.75a6.28,6.28,0,0,1-2.24,3.08,6.52,6.52,0,0,1-2.54.72v.91H131v-.91c-1.35-.12-4.35-.72-4.35-2.11a8,8,0,0,1,.48-2.44c.16-.48,1-3.14,1.28-3.77H137l2.23,5.91a2.26,2.26,0,0,1,.16.83c0,1-2.55,1.46-3.91,1.58v.91ZM123,123.43v-.9H111.38v.9a11.44,11.44,0,0,1,3.71,1.24c.88.76,1.36,2.37,1.36,5.42v10.68l-14.24-18.24H92.29v1A8.09,8.09,0,0,1,96,125.34a4.17,4.17,0,0,1,1.23,3.13v13.71c0,3-.36,4.75-1.28,5.43a9.67,9.67,0,0,1-3.58,1v.91h11.48v-.91a11.28,11.28,0,0,1-3.67-1.23c-.88-.75-1.32-2.3-1.32-5.41V128.62l16.43,21h2.72V129.85c0-2.93.38-4.71,1.26-5.38s3-.91,3.64-1M91.8,149.55v-.91A18.84,18.84,0,0,1,89,148a1.94,1.94,0,0,1-1.2-1.94V125.93A1.78,1.78,0,0,1,89,124a20.51,20.51,0,0,1,2.83-.56v-.9H77.09v.9a13.8,13.8,0,0,1,2.84.76,1.88,1.88,0,0,1,1.19,2v20.12a1.8,1.8,0,0,1-1.19,1.94,15.57,15.57,0,0,1-2.84.44v.91ZM76.38,129.69v-7.16H52.61v.9a20,20,0,0,1,3,.76,1.79,1.79,0,0,1,1.2,2v20a1.79,1.79,0,0,1-1.2,1.93,22.75,22.75,0,0,1-3,.52v.91h15v-.91a17.68,17.68,0,0,1-2.91-.63,2,2,0,0,1-1.2-1.94v-9.7h2.4c2.07,0,3,.44,3.51,1.07A10,10,0,0,1,71,141.56h1V130.12H71A8,8,0,0,1,69.4,134c-.52.5-1.36,1.05-3.51,1.05h-2.4v-11.3h3.87a24.37,24.37,0,0,1,3.19.2c2.15.23,4.19,4,4.82,5.73Z"/><path class="cls-2" d="M101.8,117.44a2.19,2.19,0,0,0-1.52-2.25c-.38-.17-1-.34-1.53-.52-.89-.32-1.27-.73-1.27-1.42a1.26,1.26,0,0,1,1.24-1.31c1.27,0,1.91,1.26,2.37,2.49h.3l0-2.79h-.43l-.3.44a4.16,4.16,0,0,0-2.06-.53,2.48,2.48,0,0,0-2.78,2.37,2.33,2.33,0,0,0,1.46,2.27c.36.14,1,.34,1.51.52.88.29,1.29.73,1.29,1.42a1.4,1.4,0,0,1-1.48,1.42c-1.25,0-2.23-1.51-2.66-2.65h-.31l.07,3h.4l.35-.53a4.3,4.3,0,0,0,2.35.62c1.85,0,3-1.09,3-2.51m-6.53-.12H95a6.35,6.35,0,0,1-1.09,1.8c-.28.28-1.06.28-1.71.28-1.08,0-1.26-.13-1.26-1v-2.6h.71a1.33,1.33,0,0,1,1,.31,2.74,2.74,0,0,1,.46,1.2h.31V114h-.31a2.25,2.25,0,0,1-.46,1.13,1.31,1.31,0,0,1-1,.33h-.71v-3.3H92a7,7,0,0,1,1,0c.63.08,1.23,1.14,1.41,1.68h.31v-2.1h-7V112a5.49,5.49,0,0,1,.89.22.55.55,0,0,1,.36.59v5.94a.53.53,0,0,1-.36.57,5.9,5.9,0,0,1-.89.15v.28h7.41Zm-7.66-3.39v-2.18H80.2v2.18h.31c.17-.51.82-1.69,1.32-1.76a5.89,5.89,0,0,1,.85,0h.24v6.64a.57.57,0,0,1-.35.58,4.71,4.71,0,0,1-1,.15v.28h4.6v-.28a7.34,7.34,0,0,1-1-.2.6.6,0,0,1-.36-.59v-6.58h.24a5.86,5.86,0,0,1,.86,0c.5.07,1.15,1.25,1.31,1.76Zm-12-1.83a1.47,1.47,0,0,1,1.63,1.69,1.61,1.61,0,0,1-1.84,1.81h-.18v-3.5Zm.72-.35H72V112a3.93,3.93,0,0,1,.89.21.53.53,0,0,1,.36.58v6a.53.53,0,0,1-.36.57,3.84,3.84,0,0,1-.89.15v.28h4.41v-.28a4.46,4.46,0,0,1-.83-.18.55.55,0,0,1-.35-.57V116h.38c1,0,1.33.72,1.49,2,.18,1.48.77,2,1.82,2,1.39,0,1.69-.75,1.72-1.72v-.36H80.3v.34c0,.64-.2,1-.49,1s-.45-.18-.53-.55c-.12-.55-.17-1-.34-1.62a1.9,1.9,0,0,0-1.71-1.2v-.09c1.08-.27,2.13-.83,2.13-2.11s-1.19-1.83-3-1.83m-8.2,4.82h-2.2L67,113.73Zm4.09,3.2v-.28a2.14,2.14,0,0,1-.73-.21,1.05,1.05,0,0,1-.47-.56c-.21-.5-2.17-5.72-2.73-7.1h-.91c-.39,1-2.27,5.84-2.64,6.76a1.42,1.42,0,0,1-1.42,1.11v.28h3.2v-.28c-.4,0-1.29-.2-1.29-.61a2.46,2.46,0,0,1,.14-.72c0-.16.31-.93.38-1.13H68.3l.65,1.75a.66.66,0,0,1,0,.25c0,.29-.76.43-1.16.46v.28Zm-8.65,0v-.28a4.07,4.07,0,0,1-.86-.18.57.57,0,0,1-.36-.57v-6a.54.54,0,0,1,.36-.58,7,7,0,0,1,.85-.16v-.27h-3.5a4.13,4.13,0,0,1-.24,1L58.2,117l-2-5.22H52.67V112a2,2,0,0,1,1,.32,1.21,1.21,0,0,1,.35,1v4.26c0,.89-.1,1.41-.37,1.61a2.92,2.92,0,0,1-1.07.29v.28h3.47v-.28a3.36,3.36,0,0,1-1.15-.37c-.27-.22-.39-.66-.39-1.58v-4.32l0-.43,2,5.21c.14.34.49,1.39.56,1.64h.56l2.68-7.06,0-.09v6.25a.59.59,0,0,1-.38.59,4.11,4.11,0,0,1-.94.16v.28Z"/></svg>