<svg id="Capa_1" data-name="Capa 1" xmlns="http://www.w3.org/2000/svg" xmlns:xlink="http://www.w3.org/1999/xlink" viewBox="0 0 349.79 267.23"><defs><style>.cls-1{fill:url(#linear-gradient);}.cls-2{fill:url(#linear-gradient-2);}.cls-3{fill:#110d0e;}</style><linearGradient id="linear-gradient" x1="126.77" y1="83.04" x2="227.63" y2="183.9" gradientUnits="userSpaceOnUse"><stop offset="0" stop-color="#fed046"/><stop offset="0" stop-color="#fdce45"/><stop offset="0.07" stop-color="#e4aa32"/><stop offset="0.14" stop-color="#cf8d22"/><stop offset="0.21" stop-color="#bf7616"/><stop offset="0.29" stop-color="#b4660d"/><stop offset="0.37" stop-color="#ad5c08"/><stop offset="0.49" stop-color="#ab5906"/><stop offset="0.61" stop-color="#ad5c08"/><stop offset="0.71" stop-color="#b4670d"/><stop offset="0.8" stop-color="#c17816"/><stop offset="0.89" stop-color="#d19123"/><stop offset="0.98" stop-color="#e7b134"/><stop offset="1" stop-color="#edb938"/></linearGradient><linearGradient id="linear-gradient-2" x1="129.8" y1="165.09" x2="227.9" y2="165.09" xlink:href="#linear-gradient"/></defs><title>corprensa_LOGOS</title><path class="cls-1" d="M177.2,204.82a71.35,71.35,0,1,1,71.35-71.35A71.43,71.43,0,0,1,177.2,204.82Zm0-140.06a68.71,68.71,0,1,0,68.71,68.71A68.78,68.78,0,0,0,177.2,64.76Z"/><rect class="cls-2" x="129.8" y="164.08" width="98.1" height="2.04"/><path class="cls-3" d="M129.78,146.75h4.35v12.16h5.57v4h-9.92Z"/><path class="cls-3" d="M151.71,162.86H148v-2.39h0a3.85,3.85,0,0,1-3.82,2.78,3.52,3.52,0,0,1-3.77-3.54c0-5.42,7.37-3.79,7.37-5.84,0-.89-1-1.24-1.8-1.24a7.55,7.55,0,0,0-5,2.15V151a9.13,9.13,0,0,1,5.61-2.06c2.08,0,5.12.78,5.12,4.17Zm-6-2.39c1.76,0,2.11-2.47,2.2-3.81a14.67,14.67,0,0,1-2.11,1c-.83.37-1.43.8-1.43,1.49A1.3,1.3,0,0,0,145.67,160.47Z"/><path class="cls-3" d="M156.8,146.74h6.92c3,0,5.77.56,5.77,4.94,0,3.95-2.26,6.27-5.85,6.27H161v4.89H156.8ZM161,154.4h2.1a2,2,0,0,0,2.3-2c0-1.26-1-1.74-2.17-1.74H161Z"/><path class="cls-3" d="M170.54,149.31h4.09v3.49h0c.31-1.79,1.13-3.87,3.35-3.87a3.63,3.63,0,0,1,1.8.44v5.07a2.59,2.59,0,0,0-2.21-1.05c-1.78,0-2.71,1.54-2.71,3.5v6h-4.35Z"/><path class="cls-3" d="M191.54,161.34a6.24,6.24,0,0,1-4.62,1.89c-4.65,0-6.58-2.63-6.58-7s1.72-7.25,6.51-7.25c3.76,0,5.45,2.51,5.45,6.23a17.12,17.12,0,0,1-.16,2.36h-7.91a3.13,3.13,0,0,0,3.4,2.54,4.59,4.59,0,0,0,3.91-1.92Zm-2.15-6.86c-.11-1.36-1.26-2-2.62-2a2.41,2.41,0,0,0-2.48,2Z"/><path class="cls-3" d="M193.29,149.31h4.08v2.94h0c.83-2.35,2.31-3.32,4.22-3.32,2.17,0,3.7,1.17,3.7,4.19v9.72H201V155c0-1.19-.3-2-1.52-2s-1.85,1.3-1.85,2.82v7h-4.34Z"/><path class="cls-3" d="M215.53,154.31a5.22,5.22,0,0,0-3.76-1.69c-.63,0-1.62.22-1.62,1,0,1.75,5.68.26,5.68,5,0,2.89-2.06,4.56-4.93,4.56a8.1,8.1,0,0,1-4.38-1.32v-3.72a5.2,5.2,0,0,0,3.71,1.87c.65,0,1.65-.13,1.65-1.15,0-2.08-5.68,0-5.68-5.62,0-2.91,2.42-4.36,5.12-4.36a6.19,6.19,0,0,1,4.21,1.41Z"/><path class="cls-3" d="M227.92,162.84h-3.69v-2.39h0a3.85,3.85,0,0,1-3.82,2.78,3.53,3.53,0,0,1-3.78-3.54c0-5.43,7.38-3.8,7.38-5.84,0-.88-1-1.23-1.8-1.23a7.54,7.54,0,0,0-5,2.14V151a9.15,9.15,0,0,1,5.61-2.06c2.09,0,5.12.78,5.12,4.16Zm-6-2.39c1.77,0,2.11-2.47,2.2-3.82a12.05,12.05,0,0,1-2.11,1c-.82.38-1.44.81-1.44,1.5A1.31,1.31,0,0,0,221.88,160.45Z"/><path class="cls-3" d="M146.84,142a14.88,14.88,0,0,1-12.71-6.77,24.78,24.78,0,0,1-4.33-14.73,33,33,0,0,1,.83-7.24,20.91,20.91,0,0,1,5.7-10.75,15,15,0,0,1,10.81-4.4,15.15,15.15,0,0,1,2.38.21,35.52,35.52,0,0,1,3.62.86l1.81.6a7.14,7.14,0,0,0,1.93.41,3.33,3.33,0,0,0,1.52-.35,2.39,2.39,0,0,0,1-1.13h.83v15.2h-1.13V111.3q0-5.79-2.61-8.89c-1.91-2.26-4.74-3.4-8.5-3.4h-1.3q-6.48.9-9.57,7.38a28.92,28.92,0,0,0-2.37,12.43,43.28,43.28,0,0,0,1.25,11.3,16,16,0,0,0,2.91,6.07,11.62,11.62,0,0,0,3.86,3.18,10.26,10.26,0,0,0,4.75,1.16,11.52,11.52,0,0,0,8.07-3.39,17,17,0,0,0,4.64-7.66l1,.36a22,22,0,0,1-5.35,8.61A12.91,12.91,0,0,1,146.84,142Z"/><path class="cls-3" d="M162.46,141.42v-.48h3V99.13h-3v-.47h6.66v42.28h3v.48Z"/><path class="cls-3" d="M194.36,141.42v-5.58a17.33,17.33,0,0,1-1.14,1.48,2.36,2.36,0,0,1-.47.48,18.57,18.57,0,0,1-4.47,3,11.21,11.21,0,0,1-4.83,1.12,8,8,0,0,1-5.3-1.84,6.81,6.81,0,0,1-2.44-4.93V110.65h-3v-.47h6.65v22.15a9.6,9.6,0,0,0,1.25,5.29,5.28,5.28,0,0,0,4.81,2.31,10.27,10.27,0,0,0,4.72-1.27,15.61,15.61,0,0,0,4.25-3.18V110.65h-3.09v-.47H198v30.7h3v.54Z"/><path class="cls-3" d="M227.26,130.65a14,14,0,0,1-3.39,8.15,9.83,9.83,0,0,1-7.66,3.39,12.91,12.91,0,0,1-4.84-1.05,12.62,12.62,0,0,1-4.42-3l-1.9,3.27h-.48V99.13h-3v-.47h6.83l-.06,18q4.63-6.65,9.86-6.65a8.11,8.11,0,0,1,4.72,1.46,9.32,9.32,0,0,1,3.24,4,18,18,0,0,1,1.16,4.52,36.63,36.63,0,0,1,.38,5.17c0,.76,0,1.6-.08,2.53S227.42,129.58,227.26,130.65ZM223.4,121a19.14,19.14,0,0,0-.27-2.41c-.1-.46-.25-1-.45-1.7a7.07,7.07,0,0,0-1.93-3.33,5.82,5.82,0,0,0-4.08-1.43,8.36,8.36,0,0,0-4.81,1.43,15.19,15.19,0,0,0-3.55,3.69v17.26a6.59,6.59,0,0,0,1.38,4.52,7.46,7.46,0,0,0,4.19,2.14,9.2,9.2,0,0,0,2.22.24,6,6,0,0,0,5-2.32q2.28-2.91,2.28-8.81V121Z"/></svg>