<svg id="Capa_1" data-name="Capa 1" xmlns="http://www.w3.org/2000/svg" viewBox="0 0 349.79 267.23"><defs><style>.cls-1{fill:#f0047f;}</style></defs><title>corprensa_LOGOS</title><path class="cls-1" d="M87.48,171.49c3.31,0,4.46-.72,4.46-4.39V128.5c0-3.74-1.15-4.39-4.46-4.39H85.1v-.94h35.07l.72,17.28h-.72c-1-12.89-2.3-16.34-13.82-16.34h-5.91c-3.31,0-4.68.65-4.68,4.32v17.93h5.33c7,0,8.06-4.39,8.14-10.23H110v22h-.72c-.08-6-1.08-10.87-8.14-10.87H95.76v19.87c0,3.6,1.37,4.32,4.68,4.32h6.77c11,0,13.32-5.62,14.19-17.86h.79L121,172.43H85.1v-.94Z"/><path class="cls-1" d="M125.64,171.49c3.32,0,4.47-.5,4.47-4.32V128.43c0-3.89-1.15-4.32-4.47-4.32h-2.37v-.94h18.94v.94h-3.6c-3.32,0-4.68.5-4.68,4.32v38.74c0,3.74,1.36,4.32,4.68,4.32h3.6c12.6,0,13.61-6,14.83-17.43h.86l-1.29,18.37H123.27v-.94Z"/><path class="cls-1" d="M161.14,171.49c3.32,0,4.47-.5,4.47-4.32V128.43c0-3.89-1.15-4.32-4.47-4.32h-2.37v-.94h18.94v.94h-3.6c-3.32,0-4.69.5-4.69,4.32v38.74c0,3.74,1.37,4.32,4.69,4.32h3.6c12.6,0,13.61-6,14.83-17.43h.86l-1.29,18.37H158.77v-.94Z"/><path class="cls-1" d="M205.36,156.51l-1.23,3.75c-1,3.17-1.8,5.47-1.8,7.49,0,2.59,1.51,3.74,4.11,3.74h1.44v.94H194.27v-.94c3.89-.22,5.4-3,7.34-8.5l14.69-40.75h1L233,166.38c1.51,4.32,3.53,5,6.48,5.11v.94H222.86v-.94h2c2.81,0,4.54-1.15,4.54-2.59a23.9,23.9,0,0,0-1.66-6.34l-2.09-6.05Zm10.15-28.95-9.87,28h19.74Z"/><path class="cls-1" d="M242.66,173.22h-.87l-.5-19.88h1c1.73,14.26,9.5,19.23,18.29,19.23,6.05,0,10.73-4.18,10.73-10.94,0-7.21-8.64-10.23-14.19-12.1s-15.41-3.46-15.41-14.33a12.51,12.51,0,0,1,12.6-12.75c4.25,0,6.41,1.15,9.58,3.53.94.72,1.66,1.51,2.81,1.51s2-1.22,3-4.89h.86L271,142h-1c-2.81-14.19-9.5-18.87-15.7-18.87-6.48,0-10.15,5.26-10.15,10.8,0,5.11,2.45,8.57,13.83,11.81,9.43,2.74,15.19,5.91,15.19,14.4,0,7.71-5.55,13.11-12.6,13.11-7.64,0-10-1.95-12.75-3.53a6.07,6.07,0,0,0-2.81-1.08c-1.15,0-1.8,1.8-2.37,4.61"/></svg>