<svg id="Capa_1" data-name="Capa 1" xmlns="http://www.w3.org/2000/svg" viewBox="0 0 349.79 267.23"><defs><style>.cls-1{fill:#131a12;}.cls-2{fill:#3c9e71;}.cls-3{fill:#121613;}.cls-4{fill:#35a575;}</style></defs><title>corprensa_LOGOS</title><path class="cls-1" d="M51.6,154.09,46.42,162h-.35l-5.21-7.92v12h-1V152.58h1.24l5.17,7.89,5.12-7.89h1.28V166.1h-1Z"/><path class="cls-1" d="M59.51,158.82h7.92v1H59.51v5.33H68v1H58.48V152.58h9.33v1h-8.3Z"/><path class="cls-1" d="M77.87,153.53H73v-.93H83.8v.93H78.91V166.1h-1Z"/><path class="cls-1" d="M99.46,166.1H98.09L93.41,161H89.72v5.11h-1V152.58h5.95a4.18,4.18,0,0,1,4.44,4.22c0,2.2-1.43,4.13-4.38,4.13ZM89.72,160h4.79c2.36,0,3.4-1.33,3.42-3.22a3.11,3.11,0,0,0-3.3-3.23H89.72Z"/><path class="cls-1" d="M117.15,159.37c0,3.55-2.28,7-6.82,7s-6.82-3.44-6.82-7,2.26-7,6.82-7S117.17,155.71,117.15,159.37Zm-12.62,0c0,3.05,2,6,5.8,6s5.81-3,5.81-6-1.93-6-5.81-6S104.51,156.16,104.53,159.35Z"/><path class="cls-2" d="M128.59,162.13h-3.82v4h-2.55V152.58l6.37,0A4.79,4.79,0,1,1,128.59,162.13Zm-3.82-2.34h3.82a2.4,2.4,0,1,0,0-4.79h-3.82Z"/><path class="cls-2" d="M151.46,159.42c0,3.5-2.19,7-6.94,7s-7-3.42-7-7,2.28-7.13,7-7.13S151.49,155.89,151.46,159.42Zm-11.38.06c.06,2.22,1.25,4.6,4.44,4.6s4.39-2.4,4.42-4.62-1.23-4.83-4.42-4.83S140,157.2,140.08,159.48Z"/><path class="cls-2" d="M168.21,166.1h-3l-3.94-4.52h-2.45v4.52h-2.55V152.56l6.43,0c3.19,0,4.87,2.15,4.87,4.49a4,4,0,0,1-3.42,4.24l4.09,4.62ZM158.79,155v4.33h3.88a2.17,2.17,0,1,0,0-4.33Z"/><path class="cls-1" d="M184.24,154.09,179.07,162h-.35l-5.22-7.92v12h-1V152.58h1.24l5.17,7.89,5.12-7.89h1.27V166.1h-1Z"/><path class="cls-1" d="M192.15,158.82h7.92v1h-7.92v5.33h8.54v1h-9.56V152.58h9.33v1h-8.31Z"/><path class="cls-1" d="M210.52,153.53h-4.89v-.93h10.82v.93h-4.89V166.1h-1Z"/><path class="cls-1" d="M232.1,166.1h-1.37L226.06,161h-3.69v5.11h-1V152.58h5.95a4.19,4.19,0,0,1,4.44,4.22c0,2.2-1.43,4.13-4.39,4.13Zm-9.73-6.1h4.79c2.36,0,3.4-1.33,3.42-3.22a3.11,3.11,0,0,0-3.3-3.23h-4.91Z"/><path class="cls-1" d="M249.79,159.37c0,3.55-2.28,7-6.82,7s-6.82-3.44-6.82-7,2.27-7,6.82-7S249.81,155.71,249.79,159.37Zm-12.61,0c0,3.05,1.95,6,5.79,6s5.82-3,5.82-6-1.93-6-5.82-6S237.16,156.16,237.18,159.35Z"/><path class="cls-1" d="M256.14,165.52a.77.77,0,0,1-1.53,0A.77.77,0,0,1,256.14,165.52Z"/><path class="cls-1" d="M272.46,164.23a7,7,0,0,1-4.93,2,6.92,6.92,0,1,1,0-13.83,6.93,6.93,0,0,1,4.93,2l-.71.62a6,6,0,0,0-4.22-1.72,6,6,0,0,0,0,11.93,6.07,6.07,0,0,0,4.23-1.71Z"/><path class="cls-1" d="M290.84,159.37c0,3.55-2.28,7-6.82,7s-6.81-3.44-6.81-7,2.25-7,6.81-7S290.86,155.71,290.84,159.37Zm-12.61,0c0,3.05,1.95,6,5.79,6s5.81-3,5.81-6-1.93-6-5.81-6S278.21,156.16,278.23,159.35Z"/><path class="cls-1" d="M308,154.09,302.83,162h-.35l-5.21-7.92v12h-1V152.58h1.24l5.17,7.89,5.12-7.89H309V166.1h-1Z"/><path class="cls-3" d="M158,103.42v3.89H146.14v31.43h-4.08V107.31H130.25v-3.89Z"/><path class="cls-3" d="M146.4,139h-4.6V107.56H130v-4.4h28.26v4.4H146.4Zm-4.09-.51h3.58V107.05h11.86v-3.38H130.51v3.38h11.8Z"/><path class="cls-4" d="M173.44,123.7c-.05,0-1.46,2.32-2.37,3.54l-8.68,11.5h-5l13.52-18.32-12.46-17h5L171.22,114c.56.81,2.17,3.33,2.22,3.33h.05s1.62-2.52,2.17-3.33l7.77-10.54h5l-12.52,17,13.53,18.32h-5l-8.68-11.5c-.91-1.22-2.27-3.54-2.32-3.54Z"/><path class="cls-3" d="M225.11,103.42v35.32H221V122.85c0-5.45.25-12.47.2-12.47h-.05s-1.81,3.23-3.08,5.35l-8.22,14.33H207.7l-8.22-14.33c-1.26-2.12-3-5.35-3.08-5.35h-.05s.2,7,.2,12.47v15.89h-4.09V103.42h3.89l8.78,14.93c3,5.15,3.58,6.57,3.63,6.57h.05c.05,0,.61-1.42,3.63-6.57l8.78-14.93Z"/><path class="cls-3" d="M256.14,103.42v3.89H244.28v31.43h-4.09V107.31h-11.8v-3.89Z"/><polygon class="cls-4" points="105.15 123.16 107.87 123.16 107.87 119.74 109.39 119.74 109.39 113.73 96.94 103.42 92.7 103.42 92.7 138.88 105.12 138.88 105.12 125.57 105.15 125.57 105.15 123.16"/><polygon class="cls-3" points="122.71 103.42 110.25 113.73 110.25 119.74 111.78 119.74 111.78 123.16 114.5 123.16 114.5 138.88 126.94 138.88 126.94 103.42 122.71 103.42"/><path class="cls-3" d="M127.2,139.14h-13V123.41h-2.72V120H110v-6.38l12.62-10.45h4.58Zm-12.45-.51h11.94v-35H122.8l-12.29,10.18v5.63H112v3.43h2.72Z"/></svg>