<?xml version="1.0" encoding="utf-8"?>
<!-- Generator: Adobe Illustrator 22.0.1, SVG Export Plug-In . SVG Version: 6.00 Build 0)  -->
<svg version="1.1" id="Trust_Logo_-_Horizontal" xmlns="http://www.w3.org/2000/svg" xmlns:xlink="http://www.w3.org/1999/xlink"
	 x="0px" y="0px" viewBox="0 0 700 200" style="enable-background:new 0 0 700 200;" xml:space="preserve">
<style type="text/css">
	.st0{fill:#FFFFFF;}
	.st1{fill:#121212;}
	.st2{clip-path:url(#SVGID_2_);}
	.st3{clip-path:url(#SVGID_4_);fill:#121212;}
	.st4{fill:none;}
</style>
<g>
	<g>
		<path class="st0" d="M144,133.8c0,5.5-4.5,10-10,10H66c-5.5,0-10-4.5-10-10v-68c0-5.5,4.5-10,10-10h68c5.5,0,10,4.5,10,10V133.8z"
			/>
		<path class="st1" d="M134,50H66c-8.8,0-16,7.2-16,16v68c0,8.8,7.2,16,16,16h68c8.8,0,16-7.2,16-16V66C150,57.2,142.8,50,134,50z
			 M144,134c0,5.5-4.5,10-10,10H66c-5.5,0-10-4.5-10-10V66c0-5.5,4.5-10,10-10h68c5.5,0,10,4.5,10,10V134z"/>
		<g>
			<defs>
				<path id="SVGID_1_" d="M109.9,126.8H90.2c-0.4,0-0.7-0.3-0.7-0.7V92.5c0-0.5-0.4-0.9-0.9-0.9H71c-0.4,0-0.7-0.3-0.7-0.7V73.6
					c0-0.4,0.3-0.7,0.7-0.7h58c0.4,0,0.7,0.3,0.7,0.7v17.4c0,0.4-0.3,0.7-0.7,0.7h-17.6c-0.4,0-0.7,0.3-0.7,0.7v33.7
					C110.6,126.5,110.3,126.8,109.9,126.8z"/>
			</defs>
			<use xlink:href="#SVGID_1_"  style="overflow:visible;fill-rule:evenodd;clip-rule:evenodd;fill:#121212;"/>
			<clipPath id="SVGID_2_">
				<use xlink:href="#SVGID_1_"  style="overflow:visible;"/>
			</clipPath>
			<g class="st2">
				<defs>
					<rect id="SVGID_3_" x="-377.2" y="-274.2" width="885.1" height="720.2"/>
				</defs>
				<use xlink:href="#SVGID_3_"  style="overflow:visible;fill:#121212;"/>
				<clipPath id="SVGID_4_">
					<use xlink:href="#SVGID_3_"  style="overflow:visible;"/>
				</clipPath>
				<rect x="69.4" y="71.9" class="st3" width="61.2" height="55.8"/>
			</g>
		</g>
	</g>
	<g>
		<path class="st1" d="M214.1,87h-12.5v34h-8.8V87h-12.4v-7.2h21.2h12.5V87z"/>
		<path class="st1" d="M243.4,92.7c1.8,1.9,2.7,4.9,2.7,9.1V121h-8.5v-19.2c0-1.8-0.4-3.1-1.2-3.9c-0.8-0.8-2-1.1-3.6-1.1
			c-2.3,0-3.9,0.8-4.9,2.5V121h-8.5V79.8h8.5v13.8c1-1.2,2.2-2.2,3.6-2.9c1.4-0.7,2.9-1,4.5-1C239.2,89.8,241.6,90.8,243.4,92.7z"/>
		<path class="st1" d="M278.6,108.5h-19.3c0.3,1.9,1.1,3.4,2.4,4.5c1.3,1.1,2.9,1.7,4.9,1.7c1.5,0,2.8-0.3,4.1-0.8
			c1.3-0.6,2.3-1.4,3.2-2.5l4.1,4.7c-1.1,1.5-2.6,2.8-4.7,3.9c-2.1,1.1-4.5,1.6-7.2,1.6c-3.1,0-5.8-0.7-8.2-2
			c-2.3-1.3-4.1-3.1-5.3-5.4c-1.2-2.3-1.9-4.8-1.9-7.5v-1.1c0-3.1,0.6-5.8,1.7-8.2c1.1-2.4,2.8-4.3,5-5.6c2.2-1.3,4.7-2,7.7-2
			c2.9,0,5.3,0.6,7.4,1.8c2,1.2,3.6,3,4.6,5.2c1.1,2.3,1.6,4.9,1.6,8V108.5z M270.2,102.1c0-1.7-0.5-3-1.4-3.9
			c-0.9-1-2.2-1.4-3.9-1.4c-1.6,0-2.9,0.5-3.8,1.6c-0.9,1.1-1.5,2.6-1.8,4.4h10.9V102.1z"/>
	</g>
	<g>
		<path class="st1" d="M328.8,87h-12.5v34h-8.8V87h-12.4v-7.2h21.2h12.5V87z"/>
		<path class="st1" d="M349.2,89.9c0.5,0.1,0.9,0.1,1.2,0.2l-0.1,8.2c-1.1-0.1-2.1-0.2-3-0.2c-3.1,0-5,1-6,3V121h-8.5V90.4h8
			l0.3,3.7c0.8-1.4,1.7-2.4,2.9-3.2c1.2-0.7,2.5-1.1,3.9-1.1C348.3,89.8,348.7,89.9,349.2,89.9z"/>
		<path class="st1" d="M382.4,90.4V121h-8l-0.2-3.2c-1,1.2-2.1,2.1-3.5,2.8c-1.4,0.6-3,1-4.8,1c-3.2,0-5.7-0.9-7.5-2.8
			c-1.8-1.8-2.7-4.7-2.7-8.6V90.4h8.5v19.8c0,1.5,0.4,2.6,1.1,3.3c0.7,0.7,1.8,1.1,3.1,1.1c2.6,0,4.4-0.9,5.5-2.7V90.4H382.4z"/>
		<path class="st1" d="M388.1,99.4c0-1.7,0.5-3.3,1.5-4.8c1-1.5,2.4-2.6,4.3-3.5c1.9-0.9,4-1.3,6.5-1.3c2.6,0,4.9,0.4,6.9,1.3
			c2,0.8,3.5,2,4.5,3.5c1.1,1.5,1.6,3.2,1.6,5.1h-8.5c0-1.2-0.4-2.2-1.1-2.9c-0.7-0.7-1.9-1-3.4-1c-1.2,0-2.2,0.3-3,0.9
			c-0.7,0.6-1.1,1.3-1.1,2.3c0,0.9,0.4,1.6,1.3,2.1c0.8,0.5,2.3,1,4.3,1.4c2.4,0.5,4.5,1,6.1,1.8c1.7,0.7,3,1.7,4,3
			c1,1.3,1.5,2.9,1.5,4.9c0,1.8-0.5,3.4-1.6,4.8c-1.1,1.4-2.6,2.5-4.5,3.3c-2,0.8-4.3,1.2-6.9,1.2c-2.8,0-5.1-0.5-7.1-1.5
			c-2-1-3.5-2.3-4.6-3.9c-1-1.6-1.6-3.2-1.6-4.9h8.1c0.1,1.5,0.6,2.6,1.6,3.3c1,0.7,2.3,1.1,3.8,1.1c1.5,0,2.6-0.3,3.3-0.8
			c0.8-0.6,1.2-1.3,1.2-2.2c0-0.6-0.2-1.1-0.5-1.5c-0.3-0.4-1-0.8-1.9-1.1c-0.9-0.4-2.2-0.7-3.8-1.1
			C391.7,107.2,388.1,104.1,388.1,99.4z"/>
		<path class="st1" d="M435.1,114.3v6.4c-1.5,0.5-3.1,0.8-5,0.8c-6,0-9-3.1-9-9.2V96.6h-4.3v-6.2h4.3v-7.6h8.5v7.6h5.1v6.2h-5.1
			v14.8c0,1.2,0.2,2,0.7,2.5c0.5,0.4,1.3,0.7,2.4,0.7C433.7,114.5,434.5,114.5,435.1,114.3z"/>
	</g>
	<g>
		<path class="st1" d="M482.6,81.6c2.4,1.2,4.2,2.8,5.4,4.9c1.3,2.1,1.9,4.4,1.9,7.1c0,2.6-0.6,4.9-1.9,6.9c-1.2,2-3,3.5-5.4,4.6
			c-2.4,1.1-5.1,1.6-8.3,1.6H467V121h-8.9V79.8h16.2C477.5,79.8,480.3,80.4,482.6,81.6z M479.3,97.9c1.1-1.1,1.6-2.5,1.6-4.3
			c0-1.2-0.2-2.3-0.7-3.3c-0.5-1-1.2-1.8-2.2-2.4c-1-0.6-2.2-0.9-3.7-0.9H467v12.5h7.3C476.6,99.5,478.2,99,479.3,97.9z"/>
		<path class="st1" d="M511.1,89.9c0.5,0.1,0.9,0.1,1.2,0.2l-0.1,8.3c-1.1-0.2-2.1-0.2-3-0.2c-3.1,0-5,1-6,3V121h-8.5V90.4h8
			l0.3,3.7c0.8-1.4,1.7-2.4,2.9-3.2c1.2-0.7,2.5-1.1,3.9-1.1C510.1,89.8,510.6,89.9,511.1,89.9z"/>
		<path class="st1" d="M517,97.4c1.1-2.4,2.8-4.2,5-5.5c2.2-1.3,4.8-2,7.8-2c3.1,0,5.7,0.7,7.9,2c2.2,1.3,3.9,3.2,5,5.5
			c1.1,2.4,1.7,5,1.7,8v0.6c0,3-0.6,5.7-1.7,8c-1.1,2.3-2.8,4.2-5,5.5c-2.2,1.3-4.8,2-7.8,2c-3.1,0-5.7-0.7-7.9-2
			c-2.2-1.3-3.9-3.2-5-5.5c-1.1-2.3-1.7-5-1.7-8v-0.6C515.3,102.4,515.8,99.7,517,97.4z M525.3,112.3c1,1.6,2.5,2.4,4.6,2.4
			c2.1,0,3.6-0.8,4.6-2.4c1-1.6,1.4-3.7,1.4-6.3v-0.6c0-2.6-0.5-4.7-1.4-6.3c-1-1.6-2.5-2.4-4.6-2.4c-2.1,0-3.6,0.8-4.6,2.4
			c-1,1.6-1.4,3.7-1.4,6.3v0.6C523.8,108.6,524.3,110.7,525.3,112.3z"/>
		<path class="st1" d="M558.8,120.4c0,3.5-0.9,6.2-2.8,8.1c-1.9,1.9-4.5,2.8-7.9,2.8c-1.5,0-2.9-0.2-4.2-0.5V124
			c0.9,0.2,1.8,0.3,2.6,0.3c2.5,0,3.8-1.3,3.8-3.9v-30h8.6V120.4z M557.8,79.8c0.9,0.8,1.3,1.9,1.3,3.2c0,1.3-0.4,2.3-1.3,3.2
			c-0.9,0.8-2,1.2-3.4,1.2c-1.4,0-2.6-0.4-3.5-1.2c-0.9-0.8-1.3-1.9-1.3-3.2c0-1.3,0.4-2.3,1.3-3.2c0.9-0.8,2-1.2,3.5-1.2
			C555.7,78.5,556.9,79,557.8,79.8z"/>
		<path class="st1" d="M592.3,108.5H573c0.3,1.9,1.1,3.4,2.4,4.5c1.3,1.1,2.9,1.7,4.9,1.7c1.5,0,2.8-0.3,4.1-0.8
			c1.3-0.6,2.3-1.4,3.2-2.5l4.1,4.7c-1.1,1.5-2.6,2.8-4.7,3.9c-2.1,1.1-4.5,1.6-7.2,1.6c-3.1,0-5.8-0.7-8.2-2
			c-2.3-1.3-4.1-3.1-5.3-5.4c-1.2-2.3-1.9-4.8-1.9-7.5v-1.1c0-3.1,0.6-5.8,1.7-8.2c1.1-2.4,2.8-4.3,5-5.6c2.2-1.3,4.7-2,7.7-2
			c2.9,0,5.3,0.6,7.4,1.8c2,1.2,3.6,3,4.6,5.2c1.1,2.3,1.6,4.9,1.6,8V108.5z M584,102.1c0-1.7-0.5-3-1.4-3.9c-0.9-1-2.2-1.4-3.9-1.4
			c-1.6,0-2.9,0.5-3.8,1.6c-0.9,1.1-1.5,2.6-1.8,4.4H584V102.1z"/>
		<path class="st1" d="M623.5,110.3c0,2.2-0.6,4.1-1.7,5.8c-1.1,1.7-2.7,3-4.6,4c-1.9,1-4.1,1.4-6.4,1.4c-3.1,0-5.7-0.7-7.8-2
			c-2.1-1.3-3.7-3.2-4.8-5.5c-1.1-2.3-1.6-5-1.6-8v-0.7c0-3,0.5-5.6,1.6-8c1.1-2.3,2.7-4.2,4.8-5.5c2.1-1.3,4.7-2,7.8-2
			c2.5,0,4.7,0.5,6.7,1.5c1.9,1,3.4,2.4,4.5,4.2c1.1,1.8,1.6,4,1.6,6.4h-8c0-1.5-0.5-2.8-1.3-3.7c-0.9-1-2.1-1.5-3.6-1.5
			c-2.1,0-3.5,0.8-4.3,2.3c-0.8,1.6-1.2,3.6-1.2,6.3v0.7c0,2.7,0.4,4.8,1.1,6.3c0.8,1.5,2.2,2.3,4.3,2.3c1.5,0,2.6-0.4,3.5-1.2
			c0.9-0.8,1.3-1.9,1.4-3.2H623.5z"/>
		<path class="st1" d="M645.3,114.3v6.4c-1.5,0.5-3.1,0.8-5,0.8c-6,0-9-3.1-9-9.2V96.6H627v-6.2h4.3v-7.6h8.5v7.6h5.1v6.2h-5.1v14.8
			c0,1.2,0.2,2,0.7,2.5c0.5,0.4,1.3,0.7,2.4,0.7C643.9,114.5,644.7,114.5,645.3,114.3z"/>
	</g>
	<rect class="st4" width="700" height="200"/>
</g>
</svg>
